<?xml version="1.0" encoding="utf-8"?>
<svg xmlns="http://www.w3.org/2000/svg" xmlns:xlink="http://www.w3.org/1999/xlink" style="margin: auto; background: none; display: block; shape-rendering: auto;" width="224px" height="224px" viewBox="0 0 100 100" preserveAspectRatio="xMidYMid">
<g transform="rotate(0 50 50)">
  <rect x="47.5" y="23.5" rx="1.76" ry="1.76" width="5" height="11" fill="#ff4d00">
    <animate attributeName="opacity" values="1;0" keyTimes="0;1" dur="0.5813953488372093s" begin="-0.5366726296958855s" repeatCount="indefinite"></animate>
  </rect>
</g><g transform="rotate(27.692307692307693 50 50)">
  <rect x="47.5" y="23.5" rx="1.76" ry="1.76" width="5" height="11" fill="#ff4d00">
    <animate attributeName="opacity" values="1;0" keyTimes="0;1" dur="0.5813953488372093s" begin="-0.4919499105545617s" repeatCount="indefinite"></animate>
  </rect>
</g><g transform="rotate(55.38461538461539 50 50)">
  <rect x="47.5" y="23.5" rx="1.76" ry="1.76" width="5" height="11" fill="#ff4d00">
    <animate attributeName="opacity" values="1;0" keyTimes="0;1" dur="0.5813953488372093s" begin="-0.4472271914132379s" repeatCount="indefinite"></animate>
  </rect>
</g><g transform="rotate(83.07692307692308 50 50)">
  <rect x="47.5" y="23.5" rx="1.76" ry="1.76" width="5" height="11" fill="#ff4d00">
    <animate attributeName="opacity" values="1;0" keyTimes="0;1" dur="0.5813953488372093s" begin="-0.40250447227191416s" repeatCount="indefinite"></animate>
  </rect>
</g><g transform="rotate(110.76923076923077 50 50)">
  <rect x="47.5" y="23.5" rx="1.76" ry="1.76" width="5" height="11" fill="#ff4d00">
    <animate attributeName="opacity" values="1;0" keyTimes="0;1" dur="0.5813953488372093s" begin="-0.35778175313059035s" repeatCount="indefinite"></animate>
  </rect>
</g><g transform="rotate(138.46153846153845 50 50)">
  <rect x="47.5" y="23.5" rx="1.76" ry="1.76" width="5" height="11" fill="#ff4d00">
    <animate attributeName="opacity" values="1;0" keyTimes="0;1" dur="0.5813953488372093s" begin="-0.31305903398926654s" repeatCount="indefinite"></animate>
  </rect>
</g><g transform="rotate(166.15384615384616 50 50)">
  <rect x="47.5" y="23.5" rx="1.76" ry="1.76" width="5" height="11" fill="#ff4d00">
    <animate attributeName="opacity" values="1;0" keyTimes="0;1" dur="0.5813953488372093s" begin="-0.26833631484794274s" repeatCount="indefinite"></animate>
  </rect>
</g><g transform="rotate(193.84615384615384 50 50)">
  <rect x="47.5" y="23.5" rx="1.76" ry="1.76" width="5" height="11" fill="#ff4d00">
    <animate attributeName="opacity" values="1;0" keyTimes="0;1" dur="0.5813953488372093s" begin="-0.22361359570661896s" repeatCount="indefinite"></animate>
  </rect>
</g><g transform="rotate(221.53846153846155 50 50)">
  <rect x="47.5" y="23.5" rx="1.76" ry="1.76" width="5" height="11" fill="#ff4d00">
    <animate attributeName="opacity" values="1;0" keyTimes="0;1" dur="0.5813953488372093s" begin="-0.17889087656529518s" repeatCount="indefinite"></animate>
  </rect>
</g><g transform="rotate(249.23076923076923 50 50)">
  <rect x="47.5" y="23.5" rx="1.76" ry="1.76" width="5" height="11" fill="#ff4d00">
    <animate attributeName="opacity" values="1;0" keyTimes="0;1" dur="0.5813953488372093s" begin="-0.13416815742397137s" repeatCount="indefinite"></animate>
  </rect>
</g><g transform="rotate(276.9230769230769 50 50)">
  <rect x="47.5" y="23.5" rx="1.76" ry="1.76" width="5" height="11" fill="#ff4d00">
    <animate attributeName="opacity" values="1;0" keyTimes="0;1" dur="0.5813953488372093s" begin="-0.08944543828264759s" repeatCount="indefinite"></animate>
  </rect>
</g><g transform="rotate(304.61538461538464 50 50)">
  <rect x="47.5" y="23.5" rx="1.76" ry="1.76" width="5" height="11" fill="#ff4d00">
    <animate attributeName="opacity" values="1;0" keyTimes="0;1" dur="0.5813953488372093s" begin="-0.044722719141323794s" repeatCount="indefinite"></animate>
  </rect>
</g><g transform="rotate(332.3076923076923 50 50)">
  <rect x="47.5" y="23.5" rx="1.76" ry="1.76" width="5" height="11" fill="#ff4d00">
    <animate attributeName="opacity" values="1;0" keyTimes="0;1" dur="0.5813953488372093s" begin="0s" repeatCount="indefinite"></animate>
  </rect>
</g>
</svg>
